<svg xmlns="http://www.w3.org/2000/svg" width="1000" height="550" viewBox="0 0 1000 550" role="img" aria-labelledby="title desc">
<title id="title">push_swap · 정렬 처리 흐름</title><desc id="desc">입력을 검증해 Stack A를 만든 뒤 원소 수에 따라 5개 이하 전용 정렬과 6개 이상 두 pivot 재귀 분할로 분기한다. 모든 Stack 연산은 Command List에 저장하고 정렬 후 인접 명령을 결합하거나 상쇄한 뒤 최종 명령을 출력한다.</desc>
<defs><marker id="arrow" markerWidth="8" markerHeight="8" refX="7" refY="4" orient="auto"><path d="M0 0 L8 4 L0 8Z" fill="#64748b"/></marker></defs>
<rect width="1000" height="550" rx="16" fill="#f8fafc"/>
<g font-family="Arial,'Noto Sans CJK KR','Malgun Gothic',sans-serif">
<text x="32" y="44" font-size="27" font-weight="700" fill="#17253b">push_swap · 정렬 처리 흐름</text>
<text x="32" y="74" font-size="16" fill="#4b5e78">입력 검증 · 크기별 분기 · 두 Pivot 재귀 정렬 · 명령 후처리</text>

<rect x="32" y="104" width="936" height="90" rx="12" fill="#edf2ff" stroke="#b8c7e3"/>
<text x="52" y="136" font-size="17" font-weight="700" fill="#4865a0">01  입력</text>
<rect x="200" y="122" width="250" height="54" rx="10" fill="#fff" stroke="#cbd5e1"/>
<text x="220" y="155" font-size="18" font-weight="700" fill="#163b76">정수 형식 · 범위 · 중복 검사</text>
<rect x="550" y="122" width="210" height="54" rx="10" fill="#fff" stroke="#cbd5e1"/>
<text x="570" y="155" font-size="18" font-weight="700" fill="#163b76">Stack A 구성</text>
<path d="M450 149 H540" fill="none" stroke="#64748b" stroke-width="2" marker-end="url(#arrow)"/>

<path d="M655 176 V220 H300 V238" fill="none" stroke="#64748b" stroke-width="2" marker-end="url(#arrow)"/>
<path d="M655 176 V220 H690 V238" fill="none" stroke="#64748b" stroke-width="2" marker-end="url(#arrow)"/>

<rect x="32" y="222" width="936" height="150" rx="12" fill="#fff" stroke="#b8c7e3"/>
<text x="52" y="254" font-size="17" font-weight="700" fill="#4865a0">02  크기별 정렬</text>
<rect x="175" y="246" width="250" height="96" rx="10" fill="#f5f8ff" stroke="#cbd5e1"/>
<text x="195" y="275" font-size="18" font-weight="700" fill="#163b76">5개 이하</text>
<text x="195" y="301" font-size="14" fill="#263a54">sort_not_more_five()</text>
<text x="195" y="324" font-size="14" fill="#263a54">원소 위치 · 최솟값 · 최댓값 기반</text>
<rect x="555" y="246" width="270" height="96" rx="10" fill="#f5f8ff" stroke="#cbd5e1"/>
<text x="575" y="275" font-size="18" font-weight="700" fill="#163b76">6개 이상</text>
<text x="575" y="301" font-size="14" fill="#263a54">두 Pivot으로 구간 분류 · 회전 복구</text>
<text x="575" y="324" font-size="14" fill="#263a54">sort_a_to_b() ↔ sort_b_to_a() 재귀</text>

<path d="M300 342 V428" fill="none" stroke="#64748b" stroke-width="2" marker-end="url(#arrow)"/>
<path d="M690 342 V404 H360 V428" fill="none" stroke="#64748b" stroke-width="2" marker-end="url(#arrow)"/>

<rect x="32" y="388" width="936" height="130" rx="12" fill="#ecf8f4" stroke="#a9d5c6"/>
<text x="52" y="420" font-size="17" font-weight="700" fill="#086b62">03  Command List · 출력</text>
<rect x="170" y="438" width="220" height="56" rx="10" fill="#fff" stroke="#cbd5e1"/>
<text x="190" y="472" font-size="17" font-weight="700" fill="#086b62">execute_cmds() · 연산 실행·저장</text>
<rect x="420" y="438" width="220" height="56" rx="10" fill="#fff" stroke="#cbd5e1"/>
<text x="440" y="463" font-size="17" font-weight="700" fill="#086b62">명령 결합 · 상쇄</text><text x="440" y="485" font-size="13" fill="#263a54">ss · rr · rrr / 역연산 제거</text>
<rect x="670" y="438" width="160" height="56" rx="10" fill="#fff" stroke="#cbd5e1"/>
<text x="690" y="472" font-size="17" font-weight="700" fill="#086b62">최종 명령 출력</text>
<path d="M390 466 H410" fill="none" stroke="#64748b" stroke-width="2" marker-end="url(#arrow)"/>
<path d="M640 466 H660" fill="none" stroke="#64748b" stroke-width="2" marker-end="url(#arrow)"/>
</g></svg>